<?xml version="1.0" encoding="UTF-8"?>
<svg id="Camada_2" data-name="Camada 2" xmlns="http://www.w3.org/2000/svg" xmlns:xlink="http://www.w3.org/1999/xlink" viewBox="0 0 494 494">
  <defs>
    <style>
      .cls-1 {
        fill: #ff6187;
      }

      .cls-2 {
        fill: #b50d35;
      }

      .cls-3, .cls-4 {
        fill: none;
      }

      .cls-5 {
        fill: #f70d3a;
      }

      .cls-4 {
        clip-path: url(#clippath-1);
      }
    </style>
    <clipPath id="clippath-1">
      <path class="cls-5" d="m361.08,404.22c3.66-7.36,5.98-14.89,6.99-22.41.11-.74.11-1.51,0-2.26-.01-.19-.06-.4-.08-.59-.1-.56-.26-1.07-.43-1.58-.05-.21-.15-.41-.24-.61-.21-.59-.55-1.12-.89-1.65-.08-.09-.12-.17-.2-.26-.43-.59-.96-1.11-1.51-1.59-.06-.04-.08-.09-.14-.13l-90.96-72.81c-2.68-2.16-6.28-2.66-9.42-1.41-12.41,4.89-23.31,12.94-31.61,23.2-13.82-18.06-23.9-38.37-30-60.61-5.87-21.33-7.71-42.97-5.53-64.48,15.14,4.97,31.63,5.12,46.89.34.26-.06.49-.14.72-.21.16-.03.3-.12.48-.19.3-.12.61-.24.9-.42.25-.11.52-.25.78-.45.27-.14.51-.31.74-.52.26-.2.49-.41.69-.59.23-.22.46-.43.65-.67.2-.24.39-.47.55-.73.2-.24.36-.49.49-.77.18-.29.34-.6.44-.89.1-.16.18-.29.23-.44l36.93-98.25c1.01-2.65.76-5.65-.69-8.1-5.91-10.17-13.95-18.63-23.82-25.06-21.45-14.22-48.52-16.52-72.33-6.33-6.37,2.7-12.35,6.36-17.84,10.8-.69.59-1.35,1.26-1.84,2.03-10.21,14.95-18.73,30.79-25.44,47.02-.13.28-.23.57-.36.85l-.02.03c-21.8,52.9-25.27,110.15-10.04,165.57,16.17,58.82,52.77,110.07,103.08,144.28,2.04,1.39,4.14,2.77,6.22,4.1,9.39,5.99,19.05,11.34,28.81,15.9.59.28,1.18.48,1.79.65,8.86,2.09,18.02,2.57,27.25,1.38,25.46-3.37,47.46-19.14,58.75-42.14Z"/>
    </clipPath>
  </defs>
  <g id="Camada_1-2" data-name="Camada 1">
    <circle cx="247" cy="247" r="247"/>
    <g>
      <path class="cls-5" d="m361.08,404.22c3.66-7.36,5.98-14.89,6.99-22.41.11-.74.11-1.51,0-2.26-.01-.19-.06-.4-.08-.59-.1-.56-.26-1.07-.43-1.58-.05-.21-.15-.41-.24-.61-.21-.59-.55-1.12-.89-1.65-.08-.09-.12-.17-.2-.26-.43-.59-.96-1.11-1.51-1.59-.06-.04-.08-.09-.14-.13l-90.96-72.81c-2.68-2.16-6.28-2.66-9.42-1.41-12.41,4.89-23.31,12.94-31.61,23.2-13.82-18.06-23.9-38.37-30-60.61-5.87-21.33-7.71-42.97-5.53-64.48,15.14,4.97,31.63,5.12,46.89.34.26-.06.49-.14.72-.21.16-.03.3-.12.48-.19.3-.12.61-.24.9-.42.25-.11.52-.25.78-.45.27-.14.51-.31.74-.52.26-.2.49-.41.69-.59.23-.22.46-.43.65-.67.2-.24.39-.47.55-.73.2-.24.36-.49.49-.77.18-.29.34-.6.44-.89.1-.16.18-.29.23-.44l36.93-98.25c1.01-2.65.76-5.65-.69-8.1-5.91-10.17-13.95-18.63-23.82-25.06-21.45-14.22-48.52-16.52-72.33-6.33-6.37,2.7-12.35,6.36-17.84,10.8-.69.59-1.35,1.26-1.84,2.03-10.21,14.95-18.73,30.79-25.44,47.02-.13.28-.23.57-.36.85l-.02.03c-21.8,52.9-25.27,110.15-10.04,165.57,16.17,58.82,52.77,110.07,103.08,144.28,2.04,1.39,4.14,2.77,6.22,4.1,9.39,5.99,19.05,11.34,28.81,15.9.59.28,1.18.48,1.79.65,8.86,2.09,18.02,2.57,27.25,1.38,25.46-3.37,47.46-19.14,58.75-42.14Z"/>
      <g class="cls-4">
        <path class="cls-2" d="m164.97-7.33c1.16.07,2.32.16,3.48.27,21.16,1.95,41.56,9.3,59.77,20.12,7.21,4.28,45.06,25.73,29.46,37.13-4.21,3.07-9.87,2.88-15.08,2.85-21.59-.13-44.18,5.37-59.89,20.17-8.7,8.19-14.81,18.74-20.04,29.48-31.81,65.37-31.54,139.54-.84,205.38,14.04,30.13,41.5,73.15,76.49,81.47,9.77,2.32,20.11.63,29.6-2.65,15.41-5.33,23.89-16.48,37.06-24.24,14.31-8.42,21.61,7.88,32.12,19.34,11.37,12.41,22.89,25.03,30.49,40.05,7.6,15.02,10.93,33.01,5.15,48.82-13.52,36.96-66.76,55.69-101.05,64.08-30.73,7.52-62.52,12.05-94.02,9.09-31.49-2.97-62.8-13.84-86.87-34.37-19.2-16.38-33.08-38.17-43.98-60.92C13.09,378.38,6.21,298.62-.74,220.89c-3.74-41.83-7.05-86.67,13.71-123.17,16.17-28.44,43.25-47.77,64.47-71.41C99.33,1.93,132.47-9.37,164.97-7.33Z"/>
        <path class="cls-3" d="m286.87,110.16c7.15-9.88,4.14-25.02-5.21-32.86-9.35-7.84-23.36-8.69-34.54-3.8s-19.65,14.76-24.85,25.79-7.42,23.24-8.78,35.36c-1.1,9.81-1.67,19.68-1.71,29.54-.01,3.81.06,7.68,1.13,11.34,3.97,13.59,19.47,19.59,33.02,23.7"/>
        <path class="cls-2" d="m229.48,195.56c-5.79-.9-11.47-2.51-16.87-4.76-9.43-3.94-25.14-11.48-20.84-24.47-5.32,16.07-8.91,32.72-10.71,49.55-1.59,14.96.73,28.85,4.36,43.48,8.04,32.37,25.75,61.92,48.58,86.24,2.11-22.79,23.04-38.39,41.35-52.13,3.14-2.35,6.43-4.99,7.53-8.76,1.19-4.08-.51-8.39-2.19-12.3-4.42-10.3-7.79-21.01-11.8-31.47-2.71-7.09-7.41-12.61-9.06-19.97-.52-2.33-6.16-25.82-7.9-25.52-7.42,1.27-15.03,1.27-22.46.11Z"/>
        <path class="cls-1" d="m318.28,355.84c-7.24-4.57-15.27-8.87-23.82-8.38-7.18.41-13.67,4.13-20.37,6.72s-14.76,3.92-20.72-.1c-5.95-4.01-7.77-12.31-6.07-19.28s6.23-12.88,10.89-18.33c6.52-7.63,14.32-15.28,24.26-16.64,5.89-.81,11.85.72,17.5,2.58,26.03,8.53,49.38,24.07,69.5,42.65,10.97,10.12,31.1,38.53,5.83,44.42-19.8,4.61-42.27-24.32-57-33.62Z"/>
        <path class="cls-1" d="m154.38,176.2c-5.91,54.93,6.08,121.76,42.1,165.45,3.09,3.75,15.51,17.92,20.55,11.62,3.65-4.57-3.24-17.27-5.88-21.02-29.78-42.24-44.92-98.06-36.18-149.41,2.35-13.77,7.58-27.36,16.95-37.72-.4,13.11,3.8,26.98,13.83,35.43,41.18,34.67,64.58-55.6,68.06-81.25,1.18-8.74,1.53-15.82-1.64-24.2-3.32-8.77-7.64-10.7-15.82-13.28-15.47-4.87-33.51,2.34-46.11,11.24-34.48,24.36-51.45,62.12-55.87,103.13Z"/>
      </g>
    </g>
  </g>
</svg>