<svg width="125" height="104" viewBox="0 0 125 104" fill="none" xmlns="http://www.w3.org/2000/svg">
<path d="M114.544 0.614075H10.6056C5.06581 0.614075 0.574951 5.10493 0.574951 10.6447V93.9352C0.574951 99.475 5.06581 103.966 10.6056 103.966H114.544C120.084 103.966 124.575 99.475 124.575 93.9352V10.6447C124.575 5.10493 120.084 0.614075 114.544 0.614075Z" fill="black"/>
<path d="M107.597 78.3062H112.685V80.7969H107.597C106.773 80.7969 106.105 81.4645 106.105 82.2884C106.105 83.1122 106.773 83.7792 107.597 83.7792H112.685V86.2699H107.597C106.773 86.2699 106.105 86.9375 106.105 87.7614C106.105 88.5852 106.773 89.2528 107.597 89.2528H112.684V91.7435H103.621V89.2528H103.904C103.32 87.8081 103.634 86.1553 104.706 85.0249C104.005 84.2868 103.614 83.3068 103.614 82.2884C103.617 80.0902 105.398 78.3088 107.597 78.3062Z" fill="white"/>
<path d="M109.345 70.1953L111.241 68.5816C112.252 69.7683 112.683 70.8521 112.683 72.204C112.7 73.6398 112.059 75.0051 110.942 75.9077H110.941C110.724 76.0805 110.491 76.2322 110.246 76.3615L110.237 76.366C109.907 76.5388 109.557 76.6688 109.194 76.7539L109.172 76.759C107.064 77.2449 104.907 76.174 104.02 74.2005C103.133 72.2277 103.764 69.9028 105.526 68.6488V68.6475C105.574 68.6142 105.622 68.5822 105.67 68.5508C105.701 68.531 105.732 68.5118 105.763 68.4926C105.827 68.4535 105.891 68.4151 105.957 68.378C105.983 68.3633 106.01 68.3492 106.037 68.3351C106.122 68.2903 106.209 68.2468 106.297 68.2071L106.302 68.2052L106.311 68.2007L106.323 68.1956L106.327 68.1937L106.345 68.186L106.348 68.1847L106.364 68.1783L106.368 68.177L106.385 68.1693L107.542 67.6803L108.58 70.1921L108.721 70.5339L109.866 73.305C110.06 72.99 110.156 72.6245 110.142 72.2546C110.142 71.5075 109.969 70.9327 109.343 70.1972L109.345 70.1953ZM107.845 74.2562L107.808 74.1653L107.198 72.6885L106.562 71.1491C106.551 71.1619 106.539 71.1747 106.528 71.1881C106.261 71.5338 106.115 71.9575 106.115 72.3947C106.114 72.6386 106.165 72.8793 106.263 73.1027C106.546 73.7409 107.148 74.18 107.842 74.2555H107.845V74.2562Z" fill="white"/>
<path d="M107.597 52.9954H112.685V55.4861H107.597C106.773 55.4861 106.105 56.1537 106.105 56.9776C106.105 57.8014 106.773 58.4684 107.597 58.4684H112.685V60.9591H107.597C106.773 60.9591 106.105 61.6267 106.105 62.4505C106.105 63.2744 106.773 63.942 107.597 63.942H112.684V66.4327H103.621V63.942H103.904C103.32 62.4973 103.634 60.8445 104.706 59.714C104.005 58.976 103.614 57.996 103.614 56.9776C103.617 54.7794 105.398 52.998 107.597 52.9954Z" fill="white"/>
<path d="M108.146 42.4994C109.98 42.4994 111.632 43.6036 112.333 45.2967C113.035 46.9905 112.647 48.9396 111.351 50.2358C110.055 51.5321 108.105 51.92 106.412 51.2184C104.718 50.5169 103.614 48.8647 103.614 47.0314C103.618 44.5299 105.645 42.5026 108.146 42.4994H108.146ZM110.188 47.0314C110.186 45.9042 109.273 44.9914 108.146 44.9901C107.321 44.9901 106.576 45.4875 106.261 46.2498C105.944 47.0129 106.119 47.8911 106.703 48.4742C107.287 49.058 108.165 49.2328 108.927 48.9166C109.69 48.6004 110.187 47.8565 110.187 47.0308L110.188 47.0314Z" fill="white"/>
<path d="M104.602 35.3013L106.364 37.0623C106.111 37.3145 106.035 37.6941 106.172 38.0244C106.309 38.354 106.631 38.5697 106.988 38.5691H112.684V41.0598H103.614V38.5691H103.73C103.652 38.2817 103.613 37.9847 103.614 37.6864C103.611 36.7915 103.967 35.9325 104.601 35.3013H104.602Z" fill="white"/>
<path d="M112.684 34.0582H103.632V31.5675H112.684V34.0582Z" fill="white"/>
<path d="M109.345 23.4457L111.241 21.832C112.252 23.0188 112.683 24.1025 112.683 25.4544C112.7 26.8902 112.059 28.2556 110.942 29.1581H110.941C110.724 29.331 110.491 29.4827 110.246 29.612L110.237 29.6164C109.907 29.7893 109.557 29.9192 109.194 30.0044L109.172 30.0095C107.064 30.4953 104.907 29.4244 104.02 27.4509C103.133 25.4781 103.764 23.1532 105.526 21.8992V21.8979C105.574 21.8646 105.622 21.8326 105.67 21.8013C105.701 21.7814 105.732 21.7622 105.763 21.743C105.827 21.704 105.891 21.6656 105.957 21.6284C105.983 21.6137 106.01 21.5996 106.037 21.5856C106.122 21.5407 106.209 21.4972 106.297 21.4575L106.302 21.4556L106.311 21.4511L106.323 21.446L106.327 21.4441L106.345 21.4364L106.348 21.4351L106.364 21.4287L106.368 21.4274L106.385 21.4198L107.542 20.9307L108.58 23.4425L108.721 23.7844L109.866 26.5554C110.06 26.2405 110.156 25.875 110.142 25.505C110.142 24.758 109.969 24.1831 109.343 23.4477L109.345 23.4457ZM107.845 27.5066L107.808 27.4157L107.198 25.939L106.562 24.3995C106.551 24.4123 106.539 24.4251 106.528 24.4386C106.261 24.7842 106.115 25.208 106.115 25.6452C106.114 25.8891 106.165 26.1297 106.263 26.3531C106.546 26.9913 107.148 27.4304 107.842 27.506H107.845V27.5066Z" fill="white"/>
<path d="M107.748 13.5745C108.568 12.7532 109.801 12.5036 110.877 12.9408C111.953 13.378 112.662 14.4163 112.678 15.5774V19.1493H110.187V15.6158C110.187 15.3963 110.009 15.219 109.79 15.219C109.571 15.219 109.393 15.3969 109.393 15.6158V17.1028C109.393 18.6986 108.1 19.9923 106.504 19.9923C104.908 19.9923 103.614 18.6986 103.614 17.1028V13.5694H106.105V17.1028C106.105 17.323 106.284 17.5016 106.504 17.5016C106.724 17.5016 106.903 17.323 106.903 17.1028V15.6158C106.901 14.8496 107.205 14.1148 107.748 13.5739L107.748 13.5745Z" fill="white"/>
<path d="M99.2066 31.0209V91.7429H89.2617V89.8014C81.6508 93.6434 72.3889 91.6507 67.0312 85.0172C61.674 78.3843 61.674 68.9112 67.0312 62.2783C72.3889 55.6448 81.6508 53.6528 89.2617 57.4954V31.0209H99.2066ZM89.2617 73.6487C89.2617 69.1481 85.6131 65.4988 81.1118 65.4988C76.6105 65.4988 72.9618 69.1481 72.9618 73.6487C72.9618 78.1494 76.6111 81.7987 81.1118 81.7987C85.6105 81.7929 89.2566 78.1474 89.2617 73.6487Z" fill="#85D613"/>
<path d="M67.631 16.6701L60.6006 23.7037C59.593 22.6949 58.0772 22.3927 56.7599 22.9388C55.4425 23.4841 54.5835 24.7695 54.5841 26.195V48.9403H44.6393V12.7264H54.5841V13.1904C55.7331 12.8813 56.918 12.7257 58.1086 12.7264C61.6824 12.7167 65.1115 14.1365 67.6316 16.6701H67.631Z" fill="#FC6D0B"/>
<path d="M81.1105 38.9724C85.6099 38.9666 89.256 35.3205 89.2604 30.8211C89.2604 27.5245 87.2748 24.5531 84.2298 23.2915C81.1841 22.0298 77.6776 22.7275 75.3475 25.0588C73.0162 27.3901 72.3192 30.8954 73.5815 33.9411C74.8431 36.9861 77.8145 38.9717 81.1111 38.9717L81.1105 38.9724ZM99.2046 30.8218C99.2046 38.1409 94.7962 44.7392 88.0346 47.5397C81.2731 50.3402 73.4899 48.7917 68.3152 43.6177C63.1399 38.443 61.5921 30.6598 64.3926 23.8983C67.1931 17.1367 73.7914 12.7283 81.1099 12.7283C91.0982 12.7404 99.1918 20.8347 99.204 30.8218H99.2046Z" fill="#F9D319"/>
<path d="M60.5378 55.5296V91.7429H50.593V90.5862C45.6929 92.5654 40.1297 91.9797 35.7481 89.0249C31.3671 86.0695 28.7407 81.1304 28.7407 75.8456V55.5302H38.6856V75.8456C38.6856 79.1339 41.3516 81.8 44.6399 81.8C47.9282 81.8 50.5943 79.1339 50.5943 75.8456V55.5302H60.5385L60.5378 55.5296Z" fill="#17BCE2"/>
<path d="M46.5327 24.315C43.8423 17.3333 37.1313 12.7283 29.6484 12.7283C26.8171 12.7251 24.025 13.3902 21.4984 14.6697V12.7283H11.5536V76.9255C11.5536 85.1094 18.1877 91.7435 26.3723 91.7435V81.798C23.6806 81.798 21.4984 79.6159 21.4984 76.9242V46.9757C28.1787 50.3466 36.2448 49.2565 41.7914 44.236C47.3386 39.2143 49.2231 31.2968 46.5321 24.3144L46.5327 24.315ZM29.6484 38.973V38.9711C26.3518 38.9711 23.3804 36.9855 22.1181 33.9404C20.8564 30.8948 21.5541 27.3895 23.8841 25.0582C26.2154 22.7269 29.7207 22.0298 32.7664 23.2908C35.8121 24.5525 37.7977 27.5239 37.7977 30.8205C37.7938 35.3199 34.1478 38.9666 29.6477 38.9724L29.6484 38.973Z" fill="#F70D3A"/>
</svg>
