<?xml version="1.0" encoding="UTF-8"?>
<svg id="Camada_2" data-name="Camada 2" xmlns="http://www.w3.org/2000/svg" xmlns:xlink="http://www.w3.org/1999/xlink" viewBox="0 0 3689.19 1724.12">
  <defs>
    <style>
      .cls-1 {
        fill: #fff;
      }

      .cls-2 {
        fill: #ffb5d6;
      }

      .cls-3 {
        fill: #f9d319;
      }

      .cls-4 {
        fill: #ff3098;
      }

      .cls-5 {
        fill: #fc6d0b;
      }

      .cls-6 {
        fill: #85d613;
      }

      .cls-7 {
        fill: #f70d3a;
      }

      .cls-8 {
        clip-path: url(#clippath);
        fill: none;
      }

      .cls-9 {
        fill: #17bce2;
      }

      .cls-10 {
        fill: #ff80b3;
      }
    </style>
    <clipPath id="clippath">
      <path class="cls-10" d="m1295.11,297.24c40.75-8.11,94.05-2.23,143.17,54.54,30.59,35.36,45.42,68.94,51.38,98.38,1.1.43,141.02,55.86,142.56,211.47,83.55,29.59,55.65,188.94,55.37,190.58,24.31,47.81,38.28,122.15-25.33,211.82,0,0,11.06,236.97-167.98,264.7-15.38,23.53-47.16,52.24-112.76,73.66-14.8,4.83-28.75,8.25-41.89,10.43-100.33,16.73-153.01-37.97-169.79-78.5-40.34,17.19-95.23,21.92-168.38-4.93-57.27-21.02-57.8-151.85-57.8-156.66h-.98c0,4.81-.53,135.65-57.8,156.66-73.14,26.85-128.03,22.12-168.38,4.93-16.77,40.53-69.45,95.23-169.79,78.5-13.14-2.19-27.09-5.6-41.89-10.43-65.6-21.42-97.39-50.13-112.76-73.66-178.25-27.6-168.07-262.59-167.98-264.68-63.62-89.67-49.65-164.01-25.33-211.82,0,0-28.62-160.86,55.36-190.6,1.54-155.61,141.46-211.04,142.56-211.47,5.96-29.44,20.79-63.03,51.38-98.38,49.12-56.77,102.42-62.65,143.17-54.54l.11-.58s37.85-140.58,183.84-94.62c145.99,45.96,131.88,308.72,131.88,308.72,53,99.43,25.06,165.6-51.51,167.24-3.26-.25-6.62-.3-10.08-.14,3.45.17,6.81.22,10.08.14,106.25,8.08,106.3,226.87,22.36,224.25,55.76,43.81,64.52,118.42,65.26,154.69-.09,4.18-.07,7.85,0,10.91.07-3.05.09-6.73,0-10.91.74-36.27,9.5-110.88,65.26-154.69-83.94,2.62-83.89-216.17,22.36-224.25,3.27.07,6.63.02,10.08-.14-3.46-.16-6.82-.11-10.08.14-76.57-1.64-104.51-67.81-51.51-167.24,0,0-14.11-262.76,131.89-308.72,145.99-45.96,183.84,94.62,183.84,94.62l.11.58Z"/>
    </clipPath>
  </defs>
  <g id="Camada_2-2" data-name="Camada 2">
    <path d="m1844.6-982.54h0c475.78,0,862.06,386.27,862.06,862.06v2669.42c0,87.05-70.67,157.72-157.72,157.72h-1408.69c-87.05,0-157.72-70.67-157.72-157.72V-120.48c0-475.78,386.27-862.06,862.06-862.06Z" transform="translate(982.54 2706.65) rotate(-90)"/>
    <g>
      <g>
        <path class="cls-10" d="m1295.11,297.24c40.75-8.11,94.05-2.23,143.17,54.54,30.59,35.36,45.42,68.94,51.38,98.38,1.1.43,141.02,55.86,142.56,211.47,83.55,29.59,55.65,188.94,55.37,190.58,24.31,47.81,38.28,122.15-25.33,211.82,0,0,11.06,236.97-167.98,264.7-15.38,23.53-47.16,52.24-112.76,73.66-14.8,4.83-28.75,8.25-41.89,10.43-100.33,16.73-153.01-37.97-169.79-78.5-40.34,17.19-95.23,21.92-168.38-4.93-57.27-21.02-57.8-151.85-57.8-156.66h-.98c0,4.81-.53,135.65-57.8,156.66-73.14,26.85-128.03,22.12-168.38,4.93-16.77,40.53-69.45,95.23-169.79,78.5-13.14-2.19-27.09-5.6-41.89-10.43-65.6-21.42-97.39-50.13-112.76-73.66-178.25-27.6-168.07-262.59-167.98-264.68-63.62-89.67-49.65-164.01-25.33-211.82,0,0-28.62-160.86,55.36-190.6,1.54-155.61,141.46-211.04,142.56-211.47,5.96-29.44,20.79-63.03,51.38-98.38,49.12-56.77,102.42-62.65,143.17-54.54l.11-.58s37.85-140.58,183.84-94.62c145.99,45.96,131.88,308.72,131.88,308.72,53,99.43,25.06,165.6-51.51,167.24-3.26-.25-6.62-.3-10.08-.14,3.45.17,6.81.22,10.08.14,106.25,8.08,106.3,226.87,22.36,224.25,55.76,43.81,64.52,118.42,65.26,154.69-.09,4.18-.07,7.85,0,10.91.07-3.05.09-6.73,0-10.91.74-36.27,9.5-110.88,65.26-154.69-83.94,2.62-83.89-216.17,22.36-224.25,3.27.07,6.63.02,10.08-.14-3.46-.16-6.82-.11-10.08.14-76.57-1.64-104.51-67.81-51.51-167.24,0,0-14.11-262.76,131.89-308.72,145.99-45.96,183.84,94.62,183.84,94.62l.11.58Z"/>
        <g class="cls-8">
          <path class="cls-4" d="m415.58,1088.79s50.88,235.01,202.78,143.28c83.98,79.12,270.18,106.84,325.29-59.34,67.45,105.53,177.72,210.75,324.31,59.34,29.26,54.42,205.42,19.23,202.76-143.28,24.1,138.01-127.58,250.76-255.52,217.03-45.38,28.51-200.89,132.35-263.22,23.58-37.63,57.96-244.7,36.2-280.87-23.58-40.82,15.67-247.95,17.53-255.54-217.03Z"/>
          <path class="cls-4" d="m268.5,1247.09s-77.53-157.82,22.75-109.64c-30.32-29.16-92.51-116.25-92.51-116.25,0,0-1.81,202.96,69.76,225.89"/>
          <path class="cls-4" d="m644.14,1007.84s39.82-46.57,84.01-40.4c-3.16-37.05-92.81,6.69-84.01,40.4Z"/>
          <path class="cls-4" d="m1154.23,967.44s51.79-5.66,84.01,40.4c5.46-44.51-54.1-63.04-84.01-40.4Z"/>
          <path class="cls-4" d="m942.68,1077.97s-14.21-131.11-87.13-174.34c58.82-72.04,62.26-109.51-29-225.6,65.18-89.33,0-275.94,0-275.94,0,0,99.68-86.53-51.37-200.06,256.51-6.49,361.78-6.45,361.78-6.45,0,0-178.73,145.47-77.16,206.51-28.11,110.44-56.29,227.36,0,275.94-40.46,73.28-99.89,118.57-29.01,221.48-46.44,57.64-80.38,116.07-88.11,178.45Z"/>
          <path class="cls-4" d="m526.22,491.31s-149.11,42.62-129.55-41.15c-.99,60.31-29.72,179.03-29.72,179.03,0,0,36.67-115.88,159.28-137.88Z"/>
          <path class="cls-4" d="m677.85,310.18s-87.29-85.12,18.01-117.37c-73.79-11.67-104.52,103.85-104.52,103.85,0,0,41.02,16.92,67.78,29.95,10.3-5.49,18.74-16.43,18.74-16.43Z"/>
          <path class="cls-4" d="m642.33,343.73s-57.32,50.21-65.55,147.58c-8.23,97.38,50.79,57.28,68.62,216.28-4.81-102.42,17.98-157.69,82.74-187.69-87.55-19.71-168.47-81.5-85.81-176.17Z"/>
          <path class="cls-4" d="m359.44,677.76s-63.64,160.73,87.14,154.19c-36.62-33.69-82.19-67.18-87.14-154.19Z"/>
          <path class="cls-4" d="m315.58,864.4s-54.37-100.63-116.83-12.17c-43.93-92.68-12.08-189.71,55.36-190.6,1.33,29.6,20.51,138.83,61.47,202.76Z"/>
          <path class="cls-4" d="m1619.61,1247.09s77.53-157.82-22.75-109.64c30.32-29.16,92.51-116.25,92.51-116.25,0,0,1.81,202.96-69.76,225.89"/>
          <path class="cls-4" d="m1361.88,491.31s149.11,42.62,129.55-41.15c.99,60.31,29.72,179.03,29.72,179.03,0,0-36.67-115.88-159.28-137.88Z"/>
          <path class="cls-4" d="m1245.77,343.73s57.32,50.21,65.55,147.58c8.23,97.38-50.79,57.28-68.62,216.28,4.81-102.42-17.98-157.69-82.74-187.69,87.55-19.71,168.47-81.5,85.81-176.17Z"/>
          <path class="cls-4" d="m1528.67,677.76s63.64,160.73-87.14,154.19c36.62-33.69,82.19-67.18,87.14-154.19Z"/>
          <path class="cls-4" d="m1572.53,864.4s54.37-100.63,116.83-12.17c43.93-92.68,12.08-189.71-55.36-190.6-1.33,29.6-20.51,138.83-61.47,202.76Z"/>
          <path class="cls-2" d="m274.55,1044.01c16.11,15.41,35.58,28.41,57.59,31.97,22.01,3.55,46.75-4.04,59.16-22.57,12.68-18.93,11.82-46.7,30.04-60.38,10.98,47.59,30.32,93.24,56.85,134.24,14.6,22.57,33.72,45.24,60.11,50.32,26.39,5.08,58.05-18.41,50.75-44.28,36.12,27.13,73.81,53.27,116.36,68.46,42.55,15.18,90.98,18.48,132.27.15,41.29-18.33,73.02-61.2,70.02-106.28-2.21-33.19-21.62-62.41-40.39-89.86-28.61-41.83-57.21-83.66-85.82-125.49,17.32,13.5,44.95.91,53.87-19.16,8.92-20.07,4.35-43.42-2.21-64.39-15.28-48.87-40.65-94.57-74.05-133.39,34.33-32.92,52.16-80.86,53.55-128.41,1.39-47.55-12.64-94.65-34.54-136.87-4.45-8.58-9.32-18.66-5.25-27.43,2.7-5.83,8.66-9.29,13.6-13.4,31.62-26.37,19.43-79.39-7.72-110.34-7.17-8.17-15.71-15.94-26.33-18.26-22.89-5.01-43.82,18.85-45.03,42.24-1.21,23.4,10.95,45.15,22.72,65.41-17.73,5.07-35.86,10.41-50.66,21.41-14.8,11-25.81,29-23.32,47.27,2.38,17.46,15.99,31.02,29.33,42.53,28.76,24.8,59.95,46.78,92.97,65.53-79.8,73.84-115.48,192.13-89.82,297.78-27.19-23.23-61.33-38.22-96.83-42.52,8.09-44.55,14.79-90.21,7.86-134.95-6.93-44.74-29.44-89.07-68.23-112.44,24.21-56.58,48.42-113.16,72.62-169.74,1.74-4.07,3.33-9.23.37-12.51-2-2.22-5.3-2.58-8.29-2.72-55.23-2.64-111.21,18.44-150.98,56.85-11.53,11.14-22.44,26.33-18.63,41.9,2.81,11.52,12.97,19.65,23.13,25.75,22.99,13.82,49.36,21.98,76.14,23.56-54.22,46.9-112.6,101.86-116.56,173.44-3.86,69.63,45.99,130.53,99.45,175.31-36.81,2.23-73.61,4.45-110.42,6.68-15.04.91-30.75,1.7-44.51-4.43-21.67-9.67-32.81-33.9-38.27-57-19.12-80.92,8.83-164.71,36.43-243.14-42.75,6.31-74.34,46.84-82.34,89.3-8,42.46,3.09,86.17,17.75,126.82,14.66,40.65,33.07,80.36,40.49,122.92,1.37,7.86,2.29,16.31-1.14,23.52s-12.79,12.12-19.69,8.09c-16.99-24.85-24.01-73.51-63.43-70.47-24.87,1.92-40.95,26.61-42.21,48.84-2.9,51.52,37.94,126.36,73.24,160.13Z"/>
          <path class="cls-2" d="m302.38,1176.55c-9.62-4.84-22.78-8.8-29.9-.72-4.3,4.89-4.19,12.2-3.14,18.62,8,49.06,56.15,84.16,105.39,90.99,10.45,1.45,21.47,2.02,30.49,7.5,8.44,5.12,13.91,13.81,20.12,21.49,20.88,25.79,53.31,41.84,86.48,42.8,7.33-17.07-9-34.39-23.63-45.84-60.32-47.21-116.9-100.16-185.81-134.84Z"/>
          <path class="cls-2" d="m1612.26,1044.01c-16.11,15.41-35.58,28.41-57.59,31.97-22.01,3.55-46.75-4.04-59.16-22.57-12.68-18.93-11.82-46.7-30.04-60.38-10.98,47.59-30.32,93.24-56.85,134.24-14.6,22.57-33.72,45.24-60.11,50.32-26.39,5.08-58.05-18.41-50.75-44.28-36.12,27.13-73.81,53.27-116.36,68.46-42.55,15.18-90.98,18.48-132.27.15-41.29-18.33-73.02-61.2-70.02-106.28,2.21-33.19,21.62-62.41,40.39-89.86,28.61-41.83,57.21-83.66,85.82-125.49-17.32,13.5-44.95.91-53.87-19.16-8.92-20.07-4.35-43.42,2.21-64.39,15.28-48.87,40.65-94.57,74.05-133.39-34.33-32.92-52.16-80.86-53.55-128.41-1.39-47.55,12.64-94.65,34.54-136.87,4.45-8.58,9.32-18.66,5.25-27.43-2.7-5.83-8.66-9.29-13.6-13.4-31.62-26.37-19.43-79.39,7.72-110.34,7.17-8.17,15.71-15.94,26.33-18.26,22.89-5.01,43.82,18.85,45.03,42.24,1.21,23.4-10.95,45.15-22.72,65.41,17.73,5.07,35.86,10.41,50.66,21.41,14.8,11,25.81,29,23.32,47.27-2.38,17.46-15.99,31.02-29.33,42.53-28.76,24.8-59.95,46.78-92.97,65.53,79.8,73.84,115.48,192.13,89.82,297.78,27.19-23.23,61.33-38.22,96.83-42.52-8.09-44.55-14.79-90.21-7.86-134.95,6.93-44.74,29.44-89.07,68.23-112.44-24.21-56.58-48.42-113.16-72.62-169.74-1.74-4.07-3.33-9.23-.37-12.51,2-2.22,5.3-2.58,8.29-2.72,55.23-2.64,111.21,18.44,150.98,56.85,11.53,11.14,22.44,26.33,18.63,41.9-2.81,11.52-12.97,19.65-23.13,25.75-22.99,13.82-49.36,21.98-76.14,23.56,54.22,46.9,112.6,101.86,116.56,173.44,3.86,69.63-45.99,130.53-99.45,175.31,36.81,2.23,73.61,4.45,110.42,6.68,15.04.91,30.75,1.7,44.51-4.43,21.67-9.67,32.81-33.9,38.27-57,19.12-80.92-8.83-164.71-36.43-243.14,42.75,6.31,74.34,46.84,82.34,89.3,8,42.46-3.09,86.17-17.75,126.82-14.66,40.65-33.07,80.36-40.49,122.92-1.37,7.86-2.29,16.31,1.14,23.52,3.43,7.21,12.79,12.12,19.69,8.09,16.99-24.85,24.01-73.51,63.43-70.47,24.87,1.92,40.95,26.61,42.21,48.84,2.9,51.52-37.94,126.36-73.24,160.13Z"/>
          <path class="cls-2" d="m1584.43,1176.55c9.62-4.84,22.78-8.8,29.9-.72,4.3,4.89,4.19,12.2,3.14,18.62-8,49.06-56.15,84.16-105.39,90.99-10.45,1.45-21.47,2.02-30.49,7.5-8.44,5.12-13.91,13.81-20.12,21.49-20.88,25.79-53.31,41.84-86.48,42.8-7.33-17.07,9-34.39,23.63-45.84,60.32-47.21,116.9-100.16,185.81-134.84Z"/>
        </g>
      </g>
      <path class="cls-4" d="m1339.62,1412.82h0c-39.19,83.43-236.57,103.11-301.46,89.6-64.88-13.52-94.51-86.5-94.51-86.5h-.98s-29.62,72.98-94.51,86.5c-64.89,13.52-262.27-6.16-301.46-89.59h0c100.34,16.73,153.02-37.97,169.79-78.5,40.35,17.19,95.24,21.92,168.38-4.93,57.27-21.02,57.8-151.85,57.8-156.66h.98c0,4.81.53,135.65,57.8,156.66,73.15,26.85,128.04,22.12,168.38,4.93,16.78,40.53,69.46,95.23,169.79,78.5Z"/>
    </g>
    <g>
      <g>
        <path class="cls-1" d="m3380.02,1277.97h83.61s0,40.93,0,40.93h-83.61c-13.53,0-24.5,10.97-24.5,24.5s10.97,24.5,24.5,24.5h83.61s0,40.93,0,40.93h-83.61c-13.53,0-24.5,10.97-24.5,24.5,0,13.53,10.97,24.5,24.5,24.5h83.6s0,40.93,0,40.93h-148.93s0-40.93,0-40.93h4.65c-9.59-23.74-4.44-50.89,13.19-69.47-11.53-12.13-17.96-28.23-17.94-44.97.04-36.12,29.31-65.4,65.44-65.43Z"/>
        <path class="cls-1" d="m3408.75,1144.68l31.17-26.52c16.61,19.5,23.69,37.31,23.69,59.52.29,23.6-10.25,46.03-28.61,60.86h-.02c-3.56,2.84-7.38,5.34-11.41,7.46l-.14.07c-5.42,2.84-11.18,4.97-17.15,6.37l-.36.08c-34.64,7.99-70.09-9.62-84.67-42.04-14.57-32.42-4.2-70.62,24.77-91.23v-.02c.77-.55,1.57-1.07,2.37-1.59.5-.33,1.01-.65,1.52-.96,1.05-.65,2.12-1.27,3.2-1.88.43-.24.87-.47,1.31-.71,1.4-.74,2.82-1.45,4.27-2.1l.07-.03.16-.07.2-.08.07-.03.29-.13.05-.02.25-.11.06-.02.3-.13,19.01-8.04,17.06,41.27,2.32,5.61,18.81,45.54c3.18-5.18,4.76-11.18,4.55-17.26,0-12.27-2.84-21.72-13.14-33.8Zm-24.64,66.73l-.61-1.49-10.02-24.26-10.45-25.29c-.19.21-.38.42-.56.64-4.39,5.68-6.78,12.65-6.79,19.82-.01,4,.82,7.97,2.43,11.63,4.66,10.49,14.55,17.7,25.96,18.94h.04Z"/>
        <path class="cls-1" d="m3380.02,862.06h83.61s0,40.93,0,40.93h-83.61c-13.53,0-24.5,10.97-24.5,24.5,0,13.53,10.97,24.5,24.5,24.5h83.61s0,40.93,0,40.93h-83.61c-13.53,0-24.5,10.97-24.5,24.5,0,13.53,10.97,24.5,24.5,24.5h83.6s0,40.93,0,40.93h-148.93s0-40.93,0-40.93h4.65c-9.59-23.74-4.44-50.89,13.19-69.47-11.53-12.13-17.96-28.23-17.94-44.97.04-36.12,29.31-65.4,65.44-65.43Z"/>
        <path class="cls-1" d="m3389.05,689.59c30.12,0,57.28,18.14,68.8,45.97,11.53,27.83,5.15,59.86-16.14,81.16-21.3,21.3-53.33,27.67-81.16,16.14-27.83-11.53-45.97-38.68-45.97-68.8.05-41.11,33.36-74.42,74.47-74.47Zm33.54,74.47c-.02-18.52-15.03-33.52-33.55-33.54-13.57,0-25.8,8.17-30.99,20.7-5.19,12.53-2.32,26.96,7.27,36.56,9.59,9.59,24.02,12.46,36.56,7.27,12.53-5.19,20.7-17.42,20.7-30.99h0Z"/>
        <path class="cls-1" d="m3330.81,571.31l28.95,28.93c-4.15,4.15-5.39,10.39-3.15,15.81,2.24,5.42,7.53,8.96,13.4,8.95h93.61s0,40.93,0,40.93h-149.04s0-40.93,0-40.93h1.91c-1.27-4.73-1.91-9.6-1.91-14.5-.04-14.71,5.8-28.82,16.23-39.19Z"/>
        <path class="cls-1" d="m3463.62,550.87h-148.74s0-40.93,0-40.93h148.74s0,40.93,0,40.93Z"/>
        <path class="cls-1" d="m3408.75,376.49l31.17-26.52c16.61,19.5,23.69,37.31,23.69,59.52.29,23.6-10.25,46.03-28.61,60.86h-.02c-3.56,2.84-7.38,5.34-11.41,7.46l-.14.07c-5.42,2.84-11.18,4.97-17.15,6.37l-.36.08c-34.64,7.99-70.09-9.62-84.67-42.04-14.57-32.42-4.2-70.62,24.77-91.23v-.02c.77-.55,1.57-1.07,2.37-1.59.5-.33,1.01-.65,1.52-.96,1.05-.65,2.12-1.27,3.2-1.88.43-.24.87-.47,1.31-.71,1.4-.74,2.82-1.45,4.27-2.1l.07-.03.16-.07.2-.08.07-.03.29-.13.05-.02.25-.11.06-.02.3-.13,19.01-8.04,17.06,41.27,2.32,5.61,18.81,45.54c3.18-5.18,4.76-11.18,4.55-17.26,0-12.27-2.84-21.72-13.14-33.8Zm-24.64,66.73l-.61-1.49-10.02-24.26-10.45-25.29c-.19.21-.38.42-.56.64-4.39,5.68-6.78,12.65-6.79,19.82-.01,4,.82,7.97,2.43,11.63,4.66,10.49,14.55,17.7,25.96,18.94h.04Z"/>
        <path class="cls-1" d="m3382.51,214.28c13.49-13.49,33.75-17.59,51.42-10.41,17.68,7.18,29.33,24.25,29.58,43.32v58.7s-40.93,0-40.93,0v-58.06c0-3.6-2.92-6.52-6.52-6.52-3.6,0-6.52,2.92-6.52,6.52v24.43c0,26.22-21.26,47.48-47.48,47.48-26.22,0-47.48-21.26-47.48-47.48v-58.06s40.93,0,40.93,0v58.06c0,3.62,2.93,6.55,6.55,6.55s6.55-2.93,6.55-6.55v-24.43c-.03-12.59,4.97-24.67,13.9-33.55h0Z"/>
      </g>
      <g>
        <path class="cls-6" d="m3242.16,500.97v997.8h-163.41v-31.9c-125.07,63.13-277.25,30.39-365.3-78.61-88.03-108.99-88.03-264.66,0-373.65,88.04-109,240.23-141.74,365.3-78.6v-435.04h163.41Zm-163.41,700.47c0-73.95-59.95-133.92-133.92-133.92s-133.92,59.97-133.92,133.92,59.97,133.92,133.92,133.92c73.92-.09,133.84-59.99,133.92-133.92Z"/>
        <path class="cls-5" d="m2723.3,265.15l-115.53,115.58c-16.55-16.58-41.47-21.54-63.11-12.57-21.65,8.96-35.77,30.08-35.75,53.51v373.76h-163.41V200.35h163.41v7.62c18.88-5.08,38.35-7.63,57.91-7.62,58.72-.16,115.07,23.17,156.48,64.8Z"/>
        <path class="cls-3" d="m2944.8,631.62c73.94-.09,133.85-60.01,133.92-133.94,0-54.17-32.63-103-82.67-123.73-50.05-20.73-107.66-9.27-145.96,29.04-38.31,38.31-49.76,95.91-29.02,145.96,20.73,50.03,69.56,82.67,123.73,82.67h0Zm297.33-133.93c0,120.27-72.44,228.69-183.55,274.71-111.11,46.02-239,20.58-324.03-64.45-85.05-85.03-110.47-212.92-64.45-324.03,46.02-111.11,154.44-183.55,274.7-183.55,164.13.2,297.13,133.2,297.33,297.32Z"/>
        <path class="cls-9" d="m2606.74,903.7v595.07h-163.41v-19.01c-80.52,32.52-171.94,22.9-243.93-25.66-71.99-48.56-115.15-129.73-115.15-216.57v-333.83h163.41v333.83c0,54.03,43.81,97.84,97.84,97.84s97.84-43.81,97.84-97.84v-333.83h163.4Z"/>
        <path class="cls-7" d="m2376.61,390.77c-44.21-114.73-154.48-190.4-277.44-190.4-46.52-.05-92.41,10.88-133.92,31.9v-31.9h-163.41v1054.91c0,134.48,109.02,243.5,243.5,243.5h0v-163.43h0c-44.23,0-80.08-35.86-80.08-80.08v-492.12c109.77,55.39,242.31,37.48,333.46-45.02,91.15-82.52,122.12-212.63,77.9-327.36Zm-277.44,240.87v-.03c-54.17,0-103-32.63-123.74-82.67-20.73-50.05-9.27-107.65,29.02-145.96,38.31-38.31,95.91-49.76,145.96-29.04,50.05,20.73,82.68,69.56,82.68,123.73-.07,73.94-59.98,133.86-133.92,133.96Z"/>
      </g>
    </g>
  </g>
</svg>